<svg viewBox="0 0 512 512" width="30" height="30" 
    xmlns="http://www.w3.org/2000/svg">
    <path d="m512 256c0 141.378906-114.621094 256-256 256-85.808594 0-161.761719-42.230469-208.210938-107.03125-11.257812-15.707031-20.789062-32.75-28.300781-50.839844-12.558593-30.21875-19.488281-63.367187-19.488281-98.128906 0-13.621094 1.058594-26.988281 3.121094-40.03125 19.207031-122.367188 125.117187-215.96875 252.878906-215.96875 141.378906 0 256 114.621094 256 256zm0 0" fill="#9e69e2"/>
    <path d="m512 256c0 26.050781-3.890625 51.191406-11.128906 74.871094-32.011719 104.847656-129.542969 181.128906-244.871094 181.128906-65.960938 0-126.101562-24.949219-171.488281-65.949219-26.5625-23.960937-48.070313-53.429687-62.742188-86.601562-14-31.628907-21.769531-66.628907-21.769531-103.449219 0-17.398438 1.730469-34.378906 5.039062-50.808594 5.480469-27.203125 15.28125-52.851562 28.640626-76.191406 44.121093 77.070312 127.160156 129 222.320312 129s178.210938-51.929688 222.320312-129c21.429688 37.429688 33.679688 80.78125 33.679688 127zm0 0" fill="#8e4fd2"/>
    <path d="m30.742188 377.703125c7.15625 13.21875 15.429687 25.738281 24.71875 37.425781 46.898437 59.019532 119.300781 96.871094 200.539062 96.871094s153.640625-37.851562 200.539062-96.871094c9.289063-11.6875 17.5625-24.207031 24.71875-37.425781zm0 0" fill="#7038ba"/>
    <path d="m242.257812 325.9375c.066407.03125.136719.070312.203126.105469-17.820313 9.445312-38.144532 14.792969-59.710938 14.792969-70.539062 0-127.726562-57.195313-127.726562-127.734376 0-70.546874 57.183593-127.734374 127.726562-127.734374 21.566406 0 41.890625 5.347656 59.710938 14.785156-.066407.035156-.144532.074218-.210938.113281-.234375.121094-.464844.246094-.695312.378906-39.964844 21.578125-67.121094 63.84375-67.121094 112.457031 0 48.613282 27.160156 90.890626 67.132812 112.464844.230469.121094.460938.242188.691406.371094zm0 0" fill="#ffe955"/>
    <path d="m242.257812 325.9375c-7.050781 1-14.292968 1.523438-21.675781 1.523438-73.113281 0-132.390625-38.347657-132.390625-114.359376 0-78.300781 59.277344-114.359374 132.390625-114.359374 7.382813 0 14.617188.519531 21.667969 1.523437-.234375.121094-.464844.246094-.695312.378906-39.964844 21.578125-67.121094 63.84375-67.121094 112.457031 0 48.613282 27.160156 90.890626 67.132812 112.464844.230469.121094.460938.242188.691406.371094zm0 0" fill="#ffd112"/>
    <path d="m241.566406 325.566406c-75.613281-5.316406-117.3125-53.644531-117.3125-112.464844 0-58.828124 41.691406-107.140624 117.300782-112.457031-39.964844 21.578125-67.125 63.84375-67.125 112.457031 0 48.613282 27.164062 90.890626 67.136718 112.464844zm0 0" fill="#ff9f00"/>
    <path d="m407.148438 462.628906c-7.976563 5.851563-16.320313 11.25-24.96875 16.152344-28.019532 15.917969-59.339844 26.6875-92.679688 31.039062-.261719.710938-.480469 1.441407-.660156 2.179688h-50.949219c.050781-.210938.097656-.421875.167969-.621094 4.230468-16.417968 19.121094-28.539062 36.871094-28.539062 1.851562 0 3.671874.128906 5.449218.390625 5.980469-31.300781 33.480469-54.960938 66.519532-54.960938 25.441406 0 47.589843 14.039063 59.171874 34.78125.359376-.140625.71875-.28125 1.078126-.421875zm0 0" fill="#fff"/>
    <path d="m382.179688 478.78125c-28.019532 15.917969-59.339844 26.6875-92.679688 31.039062 3-8.5 11.109375-14.589843 20.640625-14.589843 1.058594 0 2.109375.078125 3.128906.230469 3.441407-18 19.25-31.609376 38.25-31.609376 12.449219 0 23.53125 5.839844 30.660157 14.929688zm0 0" fill="#d0f6ff"/>
    <path d="m456.625 304.101562c.003906-.101562.007812-.203124.007812-.304687 0-18.574219-15.054687-33.628906-33.628906-33.628906-4.414062 0-8.621094.855469-12.484375 2.402343-7.457031-13.359374-21.726562-22.398437-38.113281-22.398437-21.28125 0-38.996094 15.238281-42.84375 35.398437-1.148438-.164062-2.320312-.253906-3.511719-.253906-11.574219 0-21.265625 8.007813-23.859375 18.785156zm0 0" fill="#fff"/>
    <path d="m423.8125 304.101562c0-.058593.003906-.117187.003906-.175781 0-10.679687-8.660156-19.335937-19.339844-19.335937-2.535156 0-4.957031.492187-7.175781 1.378906-4.289062-7.683594-12.496093-12.878906-21.917969-12.878906-12.238281 0-22.421874 8.761718-24.636718 20.355468-.660156-.09375-1.335938-.144531-2.019532-.144531-6.652343 0-12.230468 4.605469-13.71875 10.800781zm0 0" fill="#d0f6ff"/>
    <path d="m228.9375 430.929688c0-.101563.007812-.203126.007812-.304688 0-18.574219-15.058593-33.628906-33.632812-33.628906-4.410156 0-8.621094.855468-12.480469 2.402344-7.460937-13.359376-21.726562-22.402344-38.117187-22.402344-21.28125 0-38.992188 15.242187-42.84375 35.402344-1.144532-.164063-2.316406-.253907-3.511719-.253907-11.570313 0-21.265625 8.007813-23.855469 18.785157zm0 0" fill="#fff"/>
    <path d="m196.121094 430.929688c0-.058594.007812-.117188.007812-.175782 0-10.679687-8.660156-19.339844-19.339844-19.339844-2.539062 0-4.960937.496094-7.179687 1.382813-4.289063-7.683594-12.492187-12.878906-21.917969-12.878906-12.234375 0-22.421875 8.761719-24.632812 20.355469-.660156-.09375-1.335938-.144532-2.023438-.144532-6.652344 0-12.226562 4.605469-13.714844 10.800782zm0 0" fill="#d0f6ff"/>
    <path d="m379.40625 189.871094c0-.101563.007812-.199219.007812-.304688 0-18.574218-15.058593-33.628906-33.632812-33.628906-4.410156 0-8.621094.859375-12.480469 2.402344-7.460937-13.359375-21.730469-22.398438-38.117187-22.398438-21.28125 0-38.992188 15.238282-42.84375 35.398438-1.148438-.164063-2.320313-.253906-3.511719-.253906-11.570313 0-21.265625 8.011718-23.855469 18.785156zm0 0" fill="#fff"/>
    <path d="m346.589844 189.871094c0-.058594.003906-.117188.003906-.175782 0-10.679687-8.65625-19.335937-19.335938-19.335937-2.539062 0-4.960937.492187-7.179687 1.378906-4.289063-7.679687-12.492187-12.878906-21.917969-12.878906-12.234375 0-22.421875 8.761719-24.636718 20.355469-.660157-.09375-1.332032-.144532-2.019532-.144532-6.652344 0-12.226562 4.605469-13.71875 10.800782zm0 0" fill="#d0f6ff"/>
</svg>